<svg width="330" height="330" viewBox="0 0 330 330" fill="none" xmlns="http://www.w3.org/2000/svg">
<g clip-path="url(#clip0_21_2)">
<path fill-rule="evenodd" clip-rule="evenodd" d="M70.5604 61.7039C70.5066 57.511 70.5061 57.5379 70.5022 57.1756C70.4204 49.4286 70.3754 49.4459 70.376 48.7737C70.3765 48.101 70.0366 47.1222 79.4286 44.5073C177.168 17.2957 277.757 29.0876 281.172 77.8586C284.679 127.946 208.141 146.962 165.905 175.842C98.7683 221.748 135.459 242.403 151.647 243.86C179.601 246.375 196.427 231.345 223.305 198.213C253.922 160.471 256.296 143.096 258.549 138.356C259.191 137.006 259.578 136.881 277.222 137.146C279.774 137.184 278.96 141.016 278.958 141.214C278.747 159 279.441 299.796 278.168 300.493C277.308 300.964 199.301 300.771 198.846 300.63C197.804 300.308 198.625 299.639 228.972 240.106C249.016 200.785 262.881 174.282 262.778 173.517C262.685 172.818 258.205 172.808 257.803 172.807C252.024 172.793 255.053 177.715 228.426 221.099C174.306 309.279 99.5853 316.018 63.6436 279.819C43.3268 259.357 46.7046 231.212 56.0518 212.602C93.3888 138.265 190.775 136.434 245.416 106.483C260.718 98.0959 268.83 85.1997 258.35 76.6915C249.209 69.2691 226.274 69.0152 219.929 69.425C171.201 72.5725 150.056 81.1277 114.644 99.6813C72.2743 121.88 71.8872 125.178 71.243 123.157C71.03 122.489 70.5983 66.6203 70.5604 61.7039Z" fill="white"/>
</g>
<defs>
<clipPath id="clip0_21_2">
<rect width="330" height="330" fill="white"/>
</clipPath>
</defs>
</svg>
