<svg width="623" height="33" viewBox="0 0 623 33" fill="none" xmlns="http://www.w3.org/2000/svg">
<path d="M6.44982 19.1151C9.89396 18.6597 14.4678 18.5443 17.9512 18.5863C19.039 18.5988 18.5221 19.0634 19.2877 19.0899C20.8293 19.1376 22.06 18.8344 23.5859 18.913C24.0856 18.9416 23.5212 19.6592 24.0453 19.6737C26.7591 19.7606 29.3711 19.3831 32.2076 19.2994C46.0072 18.9009 59.545 17.995 73.4568 17.0283C78.065 16.7072 83.6625 16.7946 88.3994 16.0706C88.9448 15.9862 88.5614 15.4308 88.661 15.3724C90.2283 14.4739 89.7979 15.7111 90.8873 15.7645C95.2383 15.9701 99.9953 15.5528 104.065 14.9111C105.805 14.6355 103.931 13.6488 105.761 14.1232C105.888 14.1549 105.507 14.8232 105.995 14.8405C107.106 14.8783 109.149 14.5557 109.995 14.5177C111.628 14.4479 111.897 14.4135 113.438 14.2595C115.543 14.0544 118.06 14.1007 120.306 13.7168C120.785 13.633 120.078 13.0635 120.835 12.8722C121.588 12.6817 123.62 12.5164 124.321 12.592C125.021 12.6679 124.785 13.2011 124.919 13.3028C126.021 14.1646 128.227 12.5616 128.522 12.4951C133.96 11.3195 138.767 11.5459 143.931 10.9369C145.276 10.7777 146.649 10.584 148.022 10.3811C150.664 9.99096 153.321 9.58433 155.788 9.33553C160.264 8.88759 164.089 8.84454 168.432 8.36508C168.891 8.31539 168.281 7.61586 168.84 7.55379C174.786 6.89588 180.721 6.4648 186.693 6.50553C187.293 6.51034 186.578 7.23113 187.179 7.27552C190.863 7.52942 196.702 8.42036 198.666 5.3964C201.141 5.3386 204.145 5.25835 206.388 5.70011C207.834 5.98446 206.498 6.79097 208.225 6.37512C208.615 6.28234 208.064 5.68296 208.652 5.59159C211.127 5.20759 213.858 5.25311 216.302 4.78866C216.799 4.69271 216.631 4.13489 216.767 4.0251C217.915 3.13322 219.977 4.38875 220.415 4.46486C223.75 5.02735 226.142 4.61445 229.213 4.48281C229.926 4.45277 229.047 3.73364 229.732 3.6775C233.285 3.39661 236.971 3.29493 240.471 3.48273C241.249 3.52639 240.565 4.20438 240.938 4.2584C242.582 4.48909 242.892 3.25101 244.468 3.45065C244.8 3.49122 244.637 4.0532 244.7 4.11161C245.681 5.0286 246.445 3.6415 246.686 3.60185C249.737 3.07049 251.748 4.40906 254.702 4.09853C255.055 4.06003 254.23 3.38809 255.225 3.32279C259.957 3.00939 264.896 2.89839 269.731 2.99076C271.66 3.02774 273.578 3.09725 275.456 3.19925C276.479 3.25391 275.767 3.80335 275.834 3.86632C276.912 4.84861 277.546 3.46827 277.877 3.40699C280.489 2.95883 282.98 4.02467 284.712 2.35628C295.843 2.59175 306.887 1.41395 317.944 2.52828C318.084 2.54074 317.853 3.20321 318.133 3.22513C321.507 3.49497 320.836 2.4952 323.023 1.19287C323.575 0.866627 325.324 2.31297 325.478 2.41727C326.039 2.80427 325.5 3.78926 325.686 3.86182C327.231 4.4269 326.885 1.23678 328.941 1.17702C329.005 1.18043 328.754 1.77567 328.928 1.82895C329.47 1.99621 329.994 1.74712 330.524 1.93316C331.739 2.36426 332.212 3.89462 334.023 2.93671C334.251 2.81281 333.837 1.02377 335.676 1.05275C336.41 1.06586 339.637 0.93368 340.555 1.01936C341.467 1.10545 340.864 1.70114 340.929 1.72404C343.401 2.40186 342.485 2.74795 343.749 3.8271C345.012 4.89947 344.575 2.2461 345.062 1.93141C345.546 1.61794 347.369 2.17751 347.816 2.37704C348.265 2.57714 347.73 2.96032 348.126 3.06801C350.751 3.76754 349.213 1.7091 350.05 1.25731C352.015 0.190988 353.674 2.0896 355.525 2.20351C356.025 2.2347 355.6 1.80752 356.042 1.74806C357.79 1.51905 358.875 2.07977 360.856 1.43947C361.18 1.33436 362.744 0.105667 363.826 0.910398C363.98 1.02632 363.582 1.52542 364.334 1.59904C364.453 1.61071 364.582 1.62127 364.718 1.63058C365.817 1.71131 367.519 1.71135 368.61 1.53116C369.51 1.38234 368.441 0.631407 369.597 0.838236C370.113 0.930888 369.177 1.42018 370.148 1.55565C371.186 1.68773 373.424 1.60774 374.346 1.57222C375.245 1.5359 374.74 0.956086 374.811 0.914561C375.243 0.676282 377.002 0.360426 377.164 0.359273C384.845 0.171883 392.142 1.1536 399.588 0.895505C400.179 0.87676 399.79 0.273728 399.88 0.264686C401.916 0.0350128 400.298 1.61085 401.719 2.15545C401.524 0.940568 402.362 1.16791 403.821 1.05248C404.526 0.996107 404.145 0.523744 404.211 0.476611C405.216 -0.219912 405.907 0.707302 406.085 0.896433C406.743 1.59354 407.482 0.791542 407.933 1.25747C408.384 1.71908 407.323 2.37994 408.686 2.38914C409.075 1.96562 408.075 0.828136 409.116 0.662956C413.132 0.0406684 420.298 1.07105 423.534 1.23674C426.632 1.40063 427.654 1.35128 429.483 1.54944C432.799 1.9088 431.608 1.07378 433.687 0.768341C435.735 0.464441 434.692 2.39648 434.973 2.82661C435.25 3.25567 435.576 2.8305 435.929 3.07166C436.281 3.31242 435.498 3.57822 436.337 3.68707C437.176 3.79473 439.513 3.1123 439.828 2.68487C440.493 1.77762 439.47 0.772327 441.716 1.18634C441.845 1.21069 441.408 1.70757 441.904 1.77483C445.846 2.29146 449.859 2.448 453.804 2.92567C454.345 2.99195 453.841 3.53226 454.155 3.57694C457.397 4.04228 456.264 3.0651 458.086 2.09296C457.637 3.45894 458.592 4.33704 461.071 4.43019C462.562 4.48747 462.327 3.87932 463.309 3.49307C463.603 3.3768 464.646 3.82603 464.848 3.55241C465.514 2.65908 464.559 1.59366 467.093 2.10355C467.204 2.12734 466.829 2.61405 467.214 2.65953C469.706 2.95563 470.042 2.01353 472.754 2.01152C474.884 2.01035 478.632 2.74641 481.042 2.94227C480.93 4.44534 483.224 4.19341 484.192 3.20038C485.757 3.31034 487.452 3.32627 488.963 3.53536C489.483 3.60681 489.122 4.02335 489.186 4.0729C490.163 4.848 490.887 3.87851 491.227 3.8547C494.912 3.63857 497.851 4.52503 501.396 3.95426C501.522 3.93352 501.77 2.91957 502.672 3.71063C502.73 3.76483 501.553 4.17659 503.197 4.2891C504.85 4.40255 507.883 5.09176 510.22 4.73033C510.781 4.643 512.224 3.88566 513.316 4.58435C513.461 4.67904 513.284 4.96242 513.492 5.13486C514.165 5.68457 514.594 4.67715 515.371 5.58787C516.154 6.49896 517.788 7.22923 520.146 6.74246C520.22 6.72858 520.81 5.94449 521.537 5.99317C522.699 6.07148 524.334 6.32149 525.538 6.3761C526.114 6.40197 525.77 5.8809 525.871 5.87669C528.797 5.8089 531.121 6.13276 533.873 6.47046C534.75 6.57823 535.671 6.68743 536.67 6.786C537.432 6.86218 539.612 6.287 541.102 6.9084C542.706 7.58838 540.91 9.97088 544.674 9.58525C546.206 9.43554 548.18 6.37634 550.86 8.16205C556.156 8.03777 560.968 9.1625 566.212 8.86577C566.446 8.85294 567.23 7.98068 567.77 8.02196C568.618 8.08823 569.056 8.54286 569.653 8.60496C572.163 8.87678 574.383 8.62926 576.739 8.81923C577.667 8.89283 577.318 9.33007 578.415 9.41961C579.506 9.50938 580.266 8.94471 581.693 9.32088C582.794 9.60785 583.684 10.9196 585.236 11.1688C585.364 9.92732 586.409 10.0164 588.213 9.78973C588.559 9.74527 588.218 9.28523 588.383 9.2414C589.055 9.05198 589.636 9.45111 590.262 9.23805C590.415 9.18687 590.447 8.75311 590.573 8.68633C591.589 8.09636 593.395 9.17873 593.677 9.37022C594.811 10.0932 595.38 9.55005 596.235 9.86001C597.083 10.1721 595.774 10.4209 596.771 10.6409C598.68 11.089 601.779 11.2149 603.764 11.3636C604.582 11.4221 604.061 10.7685 604.179 10.7626C606.046 10.7159 607.85 11.5037 608.853 10.3012C609.769 13.6309 610.003 10.0537 612.507 10.8582C612.699 10.9227 612.856 12.5124 612.08 12.6885C611.341 12.8654 609.979 12.2848 608.999 12.5713C608.763 12.6406 607.262 13.9729 607.051 14.0411C605.449 14.5922 605.328 12.3105 605.255 12.1821C604.256 10.7743 602.61 12.1925 602.099 12.2571C599.966 12.5851 598.006 12.139 596.31 12.3544C595.145 12.4888 594.944 13.8896 594.019 13.7755C590.832 13.3852 590.06 11.4124 587.044 12.8634C586.395 13.1713 586.947 14.7005 584.742 13.3676C584.571 13.2798 583.041 12.1102 582.071 12.7122C581.949 12.7878 581.928 13.214 581.771 13.2385C580.719 13.3939 580.039 13.0059 578.872 13.0849C577.722 13.1647 576.213 13.2963 574.988 13.0672C574.223 12.9276 573.266 12.088 572.901 11.8755C571.873 11.2646 570.671 12.0749 570.038 11.3794C569.397 10.6834 570.78 9.76814 569.024 9.24223C568.898 10.2986 568.685 11.3769 568.518 12.4348C564.722 12.142 560.942 11.5634 557.098 11.3751C556.628 11.353 557.078 11.9365 556.573 11.9267C554.439 11.8818 552.575 11.3757 550.298 11.3984C548.503 11.4162 546.666 11.8887 544.837 11.9297C543.8 10.708 541.076 10.9522 539.103 10.7406C538.431 10.668 538.492 10.3623 538.017 10.2363C536.22 9.76873 537.018 10.8329 536.511 10.9669C535.109 11.3349 534.578 10.5079 533.7 9.85173C533.213 9.48815 532.619 9.17701 531.705 9.15108C531.57 9.14637 529.846 10.2919 529.611 10.3571C528.136 10.7839 529.389 9.91693 528.498 9.78139C526.875 9.53428 525.751 9.1841 523.801 9.45046C523.232 9.52967 521.84 10.232 520.768 9.58555C520.627 9.50085 520.727 9.09743 520.611 9.06799C518.514 8.56896 518.405 9.8474 517.192 10.2259C515.981 10.6046 514.175 9.63479 513.811 9.36189C512.857 8.65585 514.579 9.11435 514.635 9.05204C515.298 8.31 513.944 8.37989 512.914 8.26695C512.825 7.00084 511.375 7.00871 511.846 8.15494C511.9 8.2802 512.71 8.1998 512.914 8.26695C511.949 9.46021 510.353 9.54862 508.643 8.3119C507.843 7.73219 508.651 7.13414 506.158 7.25346C505.026 7.30737 505.421 8.19808 504.415 8.39202C502.117 8.83542 499.179 7.89332 496.822 7.92281C495.969 7.93404 496.776 8.449 496.193 8.47348C494.644 8.54049 493.297 8.12362 491.736 8.2465C491.594 8.25832 491.916 8.77711 491.433 8.76446C487.766 8.6791 484.589 8.23226 480.767 8.08224C478.919 8.00953 475.611 8.17583 473.693 8.05357C470.371 7.84456 466.341 6.95375 463.488 7.04646C461.63 7.10572 462.018 7.64298 461.212 7.97645C459.656 8.62503 457.001 7.30332 456.645 7.09784C456.634 7.0909 458.225 7.01373 457.388 6.71764C456.915 6.13816 456.663 7.09578 456.645 7.09784C456.412 6.96573 453.25 6.75347 452.604 6.83734C452.258 6.88318 452.434 7.39221 452.254 7.40675C447.961 7.74136 443.769 7.77495 439.424 7.44027C439.348 7.42823 439.479 6.85594 439.301 6.83468C436.81 6.52217 435.212 7.19435 433.159 7.57882C431.066 7.96176 429.435 7.7968 428.243 6.77061C426.687 6.87032 424.494 6.38958 423.236 6.09747C421.94 5.80432 421.737 6.95352 421.623 6.9748C418.047 7.65797 416.096 6.97769 412.443 6.83976C410.678 6.77195 407.235 6.92041 405.396 7.04518C403.963 7.14546 403.013 6.86473 401.639 7.04177C401.452 7.06549 401.636 7.59569 401.579 7.61608C400.038 8.25208 400.787 6.9541 400.472 6.72218C399.336 5.87912 398.628 5.42503 396.706 5.82633C396.259 5.91721 394.987 7.80643 394.127 7.92414C393.041 8.07243 393.45 7.39134 392.322 7.56448C392.226 7.57877 392.244 7.99726 391.553 7.98546C388.388 7.93644 384.882 7.73925 381.578 7.85162C381.132 7.86547 381.711 8.52856 381.069 8.56039C378.184 8.70683 374.529 8.78975 371.745 8.58015C371.001 8.5279 371.45 8.02951 371.283 7.89318C370.232 7.06778 368.873 8.384 368.649 8.41952C367.355 8.62284 366.171 8.72926 365.055 8.78472C361.215 8.97593 357.711 8.58485 353.443 9.214C353.135 9.26047 350.837 10.7577 349.74 9.62075C349.665 9.54574 348.579 8.37736 347.69 9.25096C347.635 9.30574 348.308 9.90266 347.173 9.89098C346.032 9.87896 344.237 10.3823 342.657 9.7572C342.157 9.56105 340.951 8.38496 339.513 9.42304C339.418 9.49388 337.236 11.806 336.374 10.3094C336.234 10.0629 336.318 8.43657 334.593 9.33723C334.263 9.5119 334.884 9.84974 334.008 10.1113C332.662 10.515 330.87 10.1484 329.231 10.94C328.946 11.0796 327.748 12.2385 326.73 11.4341C326.571 11.3079 326.849 10.7502 326.323 10.7089C323.839 10.5084 321.246 10.9709 318.716 10.68C317.822 10.5777 318.251 9.67123 317.315 9.46425C316.379 9.25747 314.498 9.08957 313.534 9.53046C312.572 9.97191 313.675 11.361 312.223 11.5255C305.901 12.2425 299.602 11.6086 293.273 11.6859C292.334 11.6975 293.126 12.189 291.747 12.2433C286.653 12.4453 277.879 13.2126 273.428 12.2524C269.859 11.4833 274.291 10.6666 271.576 10.3944C271.029 10.3404 270.474 10.6109 269.991 10.9491C269.315 11.421 268.779 12.0248 268.597 12.0618C265.535 12.7029 263.376 12.0285 260.615 12.3551C260.044 12.4228 260.629 13.0867 260.144 13.1368C258.484 13.3143 256.732 13.0722 255.146 13.1869C254.435 13.24 254.586 13.7572 253.929 13.7415C252.357 13.7099 250.964 13.5436 249.418 13.1142C249.277 13.0751 250.19 12.3887 249.03 12.4101C247.152 12.4467 244.8 12.0585 242.664 12.6478C242.03 12.8249 242.056 14.0187 240.644 13.2538C240.348 13.0943 240.654 11.6454 239.104 12.9531C238.842 13.1703 236.227 14.9589 234.857 13.9439C234.496 13.6767 233.552 12.5456 232.79 12.766C232.687 12.8003 233.136 13.4213 232.501 13.5138C230.262 13.8287 227.906 13.8752 225.608 14.1933C224.995 14.2796 225.946 14.8956 225.032 15.0031C222.516 15.2996 219.358 15.2999 216.88 15.2316C215.966 15.2052 216.564 14.6208 216.494 14.5648C215.374 13.6533 214.82 15.0012 214.471 15.0981C212.302 15.6831 210.594 15.1675 208.58 15.4555C208.024 15.5334 208.459 16.134 208.351 16.1966C207.233 16.813 208.022 15.6368 207.284 15.5588C205.218 15.3367 202.943 15.5353 200.882 15.7549C200.126 15.8366 201.028 16.5033 200.348 16.5684C196.33 16.9671 192.142 17.2028 188.184 17.1108C187.439 17.0923 187.86 16.4983 187.696 16.3831C186.563 15.5754 185.102 16.9159 184.754 17.0609C183.171 17.7218 182.498 17.2817 181.068 17.495C174.089 18.5419 165.413 19.0446 158.787 19.5626C155.367 19.8285 152.234 20.0396 149.205 20.2708C144.544 20.6289 140.086 20.9862 135.099 21.634C134.573 21.7016 135.188 22.3808 134.735 22.4485C128.888 23.2887 123.09 23.6286 117.227 24.4648C116.747 24.5319 117.516 25.1599 116.748 25.2912C115.183 25.5643 113.146 25.7388 111.521 25.6806C110.728 25.6537 111.715 24.9431 110.917 24.9283C109.068 24.8915 107.083 25.0443 105.21 25.3479C104.413 25.4786 105.695 26.0737 104.654 26.1875C97.5472 26.9784 90.595 27.7816 83.3194 27.5296C82.8299 27.5113 82.2489 26.0936 81.2236 26.472C81.1823 26.8845 81.2312 27.3606 81.2372 27.7968C70.8935 29.0006 60.635 29.4035 50.2223 30.2074C49.7866 30.2411 50.604 30.9515 49.762 31.0206C44.8303 31.4262 40.1442 32.0294 35.0207 31.6676C34.5196 31.6321 34.6733 30.2491 33.2321 30.5719C32.9615 30.6316 30.7451 30.991 30.2152 31.3304C30.1426 31.381 30.5888 31.9855 29.8907 32.0594C25.7253 32.4861 21.3978 32.6745 17.2453 32.5963C16.552 32.5842 17.2329 31.8518 16.7407 31.8371C13.6302 31.7316 10.1333 32.4243 7.05799 32.1877C6.86335 32.1718 6.68957 32.1505 6.45883 32.129C4.22922 31.8711 4.99695 30.6394 3.73408 29.5695C3.61501 29.4146 2.1805 29.4882 2.14495 28.8164C1.87431 27.1402 2.31355 25.254 1.95391 23.4722C1.92891 23.3766 1.84021 23.336 1.67485 23.3172C1.46691 23.3014 1.26515 23.3017 1.14308 23.2793C1.11279 23.266 0.950093 23.2574 0.906972 23.2321C0.855183 23.2074 0.856247 23.1706 0.851948 23.1214C0.851123 23.0719 0.835195 23.0107 0.855932 22.93C0.848127 22.8513 1.07141 22.7399 1.1178 22.6192C1.1462 22.5545 2.43041 22.1541 2.76652 21.8115C2.9502 21.5781 2.53979 20.9212 2.93345 20.6114C3.31116 20.3029 3.98592 20.8303 4.62064 20.4536C5.26035 20.1006 5.06006 19.4347 6.12674 19.1754C6.22158 19.1518 6.3284 19.1315 6.44982 19.1151ZM417.454 4.78725C416.283 4.21185 416.072 6.25385 417.357 5.78126C417.419 5.75601 417.514 4.81547 417.454 4.78725ZM561.059 10.1753C559.535 9.26909 558.379 10.3996 559.463 11.0939C560.543 11.7905 561.522 10.4517 561.059 10.1753ZM577.147 10.5461C575.325 9.76266 574.906 12.4708 576.899 12.0513C577.017 12.028 577.253 10.592 577.147 10.5461ZM9.04398 28.8609C9.02976 28.846 8.81889 28.8456 8.559 28.8566C8.29534 28.8679 8.041 28.8863 8.03032 28.9029C7.56426 29.6985 9.52451 29.6184 9.04398 28.8609ZM593.161 10.8486C592.596 10.4177 590.909 10.7684 591.581 11.3001C592.153 11.7322 593.857 11.3873 593.161 10.8486ZM355.62 3.29604C355.6 3.26346 354.911 3.26225 354.932 3.45073C355.005 4.05777 355.955 3.84466 355.62 3.29604ZM620.21 12.5912C616.146 12.1678 614.163 9.37787 618.366 9.90552C618.798 9.95729 618.328 10.1506 617.842 10.3642C617.445 10.5838 617.113 10.8284 617.551 10.9777C618.505 11.2603 619.397 10.9984 620.061 10.7751C620.311 10.6584 620.951 10.5808 621.327 10.5772C621.531 10.5765 621.714 10.5972 621.873 10.649C621.913 10.6619 621.948 10.6766 621.989 10.6939C622.097 10.7155 622.19 10.7384 622.267 10.7626C622.42 10.8109 622.508 10.8644 622.519 10.9235C622.51 10.9657 622.55 11.1056 622.425 11.2784C622.358 11.3645 622.232 11.4577 622 11.5486C621.817 11.6426 621.777 11.7505 621.64 11.8505C621.181 12.2562 620.307 12.6067 620.204 12.5947C620.206 12.5935 620.208 12.5924 620.21 12.5912ZM416.819 2.324C416.796 2.29651 415.85 2.25358 415.828 2.28006C415.304 2.92079 417.207 3.00539 416.819 2.324ZM315.415 3.24112C315.361 3.17666 313.145 3.17763 313.074 3.24061C311.955 4.49397 316.435 4.49084 315.415 3.24112ZM481.079 2.98402C482.143 2.43582 483.39 2.4222 484.188 3.19942C483.156 3.11536 482.116 3.06484 481.079 2.98402Z" fill="#FF006D"/>
</svg>
