<svg width="96" height="96" viewBox="0 0 96 96" fill="none" xmlns="http://www.w3.org/2000/svg">
<g clip-path="url(#clip0_2141_301)">
<path fill-rule="evenodd" clip-rule="evenodd" d="M96 96H0V0H96V96ZM76.2019 40.6901V33.2445C74.9756 32.6985 67.9536 30.6898 62.406 32.8067C54.4148 35.8558 54.7018 45.0414 57.7342 48.6465C61.6633 53.3175 71.4371 55.059 69.8377 59.6438C69.0096 62.0179 65.1431 62.4311 61.7344 61.6341C58.56 60.8919 55.8 59.0117 55.8 59.0117V66.8951C55.8 66.8951 58.5281 68.4161 61.8765 68.778C66.1689 69.2417 71.5494 68.3661 74.2449 65.9702C79.0431 61.7051 79.7799 52.257 70.6871 47.8697C63.1206 44.2191 63.2451 43.1771 63.2981 41.3046C63.3694 38.7966 68.6351 37.2527 76.2019 40.6901ZM35.3981 19.7953C41.6938 20.0143 50.946 22.9159 50.946 35.2884C50.946 47.661 39.6259 51.7209 29.2967 50.8363V68.355H21.6019V19.9594C21.6019 19.9594 29.1022 19.5763 35.3981 19.7953ZM37.3961 43.1719C40.7141 41.9612 42.8707 39.3585 42.8707 35.3156C42.8707 31.0292 40.6761 28.1265 37.3194 27.3066C33.6846 26.4184 29.2965 26.9419 29.2965 26.9419V43.8251C29.2965 43.8251 35.3706 43.911 37.3961 43.1719Z" fill="white"/>
</g>
<defs>
<clipPath id="clip0_2141_301">
<rect width="96" height="96" fill="white"/>
</clipPath>
</defs>
</svg>
