<svg width="96" height="96" viewBox="0 0 96 96" fill="none" xmlns="http://www.w3.org/2000/svg">
<path d="M13.6421 0H49.3848C51.275 0 56.5895 7.57895 57.6 8.58947C58.6105 9.6 42.9474 85.8947 42.9474 85.8947L67.5934 14.7468C69.0112 10.6539 69.6655 5.89772 72.9464 3.06976C74.8834 1.4001 77.9673 0 82.8632 0C94.9895 0 96 8.58947 96 8.58947V85.8947C96 87.4105 91.4526 96 82.3579 96C73.2632 96 68.6907 88.4211 68.7158 86.9053C68.7408 85.3895 68.7158 82.3579 69.7263 76.8C70.7368 71.2421 91.9579 24.2526 91.9579 24.2526C91.9579 24.2526 50.5263 91.9579 41.9368 93.4737C38.1555 94.141 35.0597 94.2207 32.7786 94.101C29.7629 93.9426 26.9213 92.8347 24.2235 91.4778C21.1673 89.9406 17.1758 87.8413 15.1579 86.4C13.7133 85.3681 12.0158 83.5776 10.513 81.8203C7.75576 78.5962 5.77211 74.8092 4.19656 70.8703C1.75694 64.7713 0.471896 58.272 0.406861 51.7035L0 10.6105C0 10.6105 0 9.6 0.505263 8.58947C1.01053 7.57895 4.04209 4.54738 5.05263 3.53685L5.05263 3.53684C6.06316 2.52632 10.1053 0 11.1158 0H13.6421Z" fill="white"/>
</svg>
